<?xml version="1.0" encoding="utf-8"?>
<svg viewBox="136.8162 123.6286 206.8733 206.8721" width="206.873px" height="206.872px"
    preserveAspectRatio="none" xmlns="http://www.w3.org/2000/svg">
    <defs>
        <linearGradient id="paint0_linear_16_339" x1="-12.4348" y1="91.2145" x2="228.124"
            y2="92.098" gradientUnits="userSpaceOnUse"
            gradientTransform="matrix(1, 0, 0, 1, 138.252288, 125.06418)">
            <stop stop-color="#AA367C" />
            <stop offset="1" stop-color="#4A2FBD" />
        </linearGradient>
    </defs>
    <path
        d="M 325.892 194.967 C 331.345 192.924 337.479 195.679 338.949 201.313 C 344.491 222.551 343.055 245.116 334.689 265.611 C 324.99 289.375 306.688 308.608 283.435 319.473 C 260.181 330.339 233.686 332.039 209.235 324.233 C 184.784 316.429 164.174 299.693 151.517 277.364 C 138.86 255.035 135.087 228.755 140.949 203.767 C 146.812 178.778 161.88 156.919 183.147 142.549 C 204.414 128.179 230.317 122.356 255.688 126.24 C 277.57 129.589 297.668 139.948 313.044 155.612 C 317.122 159.767 316.336 166.445 311.782 170.074 C 307.228 173.702 300.638 172.892 296.448 168.848 C 284.465 157.281 269.13 149.629 252.497 147.083 C 232.371 144.002 211.823 148.622 194.952 160.021 C 178.082 171.42 166.129 188.761 161.478 208.583 C 156.827 228.405 159.821 249.253 169.861 266.966 C 179.901 284.679 196.251 297.955 215.647 304.147 C 235.044 310.339 256.062 308.99 274.508 300.37 C 292.954 291.751 307.472 276.494 315.167 257.643 C 321.526 242.064 322.837 224.977 319.068 208.753 C 317.75 203.081 320.44 197.011 325.892 194.967 Z"
        fill="url(#paint0_linear_16_339)" style="transform-origin: 240.253px 227.065px;"
        transform="matrix(0.999899029732, -0.01418299973, 0.01418299973, 0.999899029732, 9.9083e-8, 1.24831e-7)"
        id="object-0" />
        <text
        style="fill: rgb(255, 255, 255); font-family: &quot;Segoe UI Variable Display&quot;; font-size: 38px; font-weight: 700; white-space: pre;"
        x="204.702" y="240.826" id="object-1">50%</text>
</svg>